<svg width="187" height="33" viewBox="0 0 187 33" fill="none" xmlns="http://www.w3.org/2000/svg">
<g clip-path="url(#clip0)">
<path d="M32.5855 25.9782H37.0597V2.04902C35.8731 2.04902 34.7351 2.52041 33.896 3.35949C33.0569 4.19856 32.5855 5.3366 32.5855 6.52323V25.9782Z" fill="white"/>
<path d="M99.76 25.9782H104.236V2.04902C103.049 2.04902 101.911 2.52034 101.072 3.35936C100.232 4.19838 99.7606 5.33641 99.76 6.52323V25.9782Z" fill="white"/>
<path d="M107.281 25.9782H111.755V2.04902C110.569 2.04902 109.431 2.52041 108.591 3.35949C107.752 4.19856 107.281 5.3366 107.281 6.52323V25.9782Z" fill="white"/>
<path d="M7.18202 6.29858H11.5296V2.04083H7.15751C5.26193 2.04083 3.44399 2.79385 2.10361 4.13423C0.763228 5.47461 0.0102104 7.29255 0.0102104 9.18814V30.7669H0C1.18524 30.7663 2.32194 30.296 3.16099 29.4588C4.00004 28.6217 4.47301 27.4861 4.47625 26.3008V15.8862H9.52429V11.6162H4.47625V9.00435C4.47625 8.28673 4.76132 7.59851 5.26875 7.09108C5.77618 6.58365 6.46441 6.29858 7.18202 6.29858V6.29858Z" fill="white"/>
<path d="M88.9799 26.4091C82.241 26.4091 79.4474 21.7266 79.7271 16.942C79.9457 13.2274 82.8046 8.99619 88.7123 8.99619C95.392 8.99619 98.0733 15.0489 97.1012 19.5334H84.5424C84.7936 21.216 86.4252 22.3739 88.6266 22.523C91.2629 22.6986 92.9619 20.7198 92.9619 20.7198L96.362 22.5148C94.7059 25.2798 92.0675 26.4091 88.9799 26.4091ZM88.7001 12.8864C85.5348 12.8659 84.5649 15.5554 84.5832 16.3191H92.674C92.7475 15.6473 92.0981 12.9068 88.7001 12.8864Z" fill="white"/>
<path d="M77.3788 15.5799C76.6579 12.5596 74.8241 10.4277 71.8549 9.45362C69.1573 8.53876 66.2678 9.07379 64.6321 10.6237V2C64.0443 2 63.4623 2.1158 62.9194 2.34077C62.3764 2.56575 61.8831 2.8955 61.4676 3.31119C61.0521 3.72687 60.7226 4.22035 60.4978 4.76342C60.2731 5.30649 60.1576 5.88852 60.1578 6.47625V25.9394H63.9663L64.095 24.7856C67.6176 27.6139 73.3007 26.3294 75.5777 23.4276C77.3012 21.2303 78.067 18.4653 77.3788 15.5799ZM72.8862 19.1658C72.3491 20.9199 71.1116 22.0002 69.2737 22.2105C67.5318 22.4147 65.9104 21.8491 64.7362 20.4155V15.051C65.0998 14.5557 65.5575 14.137 66.0831 13.8188C66.6087 13.5006 67.1919 13.2892 67.7993 13.1968C72.0265 12.7638 73.6377 16.2946 72.8841 19.1658H72.8862Z" fill="white"/>
<path d="M29.5817 9.86407C28.6171 9.86193 27.6806 10.189 26.927 10.7912C24.7256 9.2004 21.5052 8.37335 17.9418 9.57818C14.9992 10.5563 13.1776 12.6781 12.4568 15.682C11.7747 18.5409 12.5364 21.2977 14.2497 23.4828C16.496 26.3539 22.1158 27.6343 25.6221 24.8673L25.9754 25.9782H29.5817V9.86407ZM25.1585 20.583C23.8924 22.0451 22.2588 22.3759 20.521 22.1799C18.6831 21.9757 17.4578 20.9894 16.9269 19.2434C16.1795 16.3845 17.7805 12.7883 21.9811 13.2192C24.2886 13.5786 25.1585 15.2613 25.1585 15.2613V20.583Z" fill="white"/>
<path d="M132.09 9.86816C131.126 9.86601 130.189 10.1931 129.436 10.7953C127.234 9.20448 124.014 8.37743 120.451 9.58226C117.508 10.5604 115.686 12.6822 114.97 15.682C114.283 18.5532 115.045 21.3018 116.758 23.4848C119.005 26.358 124.625 27.6384 128.131 24.8714L128.484 25.9823H132.09V9.86816ZM127.667 20.5932C126.407 22.0492 124.759 22.38 123.03 22.184C121.192 21.9798 119.967 20.9914 119.436 19.2475C118.688 16.3987 120.289 12.7924 124.49 13.2233C126.797 13.5827 127.667 15.2654 127.667 15.2654V20.5932Z" fill="white"/>
<path d="M54.4972 10.7912C52.2959 9.2004 49.0755 8.37335 45.5121 9.57818C42.5674 10.5563 40.7458 12.6781 40.025 15.682C39.3388 18.5532 40.1005 21.3018 41.8138 23.4868C44.0601 26.358 49.68 27.6384 53.1862 24.8714L53.5395 25.9823H57.1458V9.86407C56.1833 9.86332 55.2492 10.1903 54.4972 10.7912ZM52.7268 20.583C51.4607 22.0451 49.827 22.3759 48.0892 22.1799C46.2513 21.9757 45.026 20.9894 44.4951 19.2434C43.7477 16.3845 45.3487 12.7883 49.5493 13.2192C51.8568 13.5786 52.7268 15.2613 52.7268 15.2613V20.583Z" fill="white"/>
<path d="M158.29 12.1839C154.32 12.1839 151.327 15.1429 151.327 19.0678C151.327 22.9927 154.32 25.9782 158.29 25.9782C162.26 25.9782 165.28 23.009 165.28 19.0678C165.28 15.1265 162.274 12.1839 158.29 12.1839ZM158.29 22.6475C156.334 22.6475 154.917 21.1425 154.917 19.0657C154.917 17.04 156.367 15.5125 158.29 15.5125C160.214 15.5125 161.694 17.04 161.694 19.0657C161.694 21.0915 160.23 22.6475 158.288 22.6475H158.29Z" fill="white"/>
<path d="M181.778 12.1839C179.722 12.0246 177.966 13.0906 176.984 13.6991C175.858 12.7904 174.607 12.1839 173.001 12.1839C170.016 12.1839 166.969 13.9748 166.969 13.9748V25.6637H170.453V15.974C171.015 15.5656 172.029 15.5125 172.597 15.5125C173.788 15.5125 175.176 16.4457 175.176 18.0222V25.6637H178.648V17.1441C178.664 16.7894 178.601 16.4356 178.462 16.1088C180.786 14.8121 183.506 15.8004 183.506 18.0222V25.6637H186.99V17.9691C187 14.2321 184.108 12.3615 181.778 12.1839Z" fill="white"/>
<path d="M141.976 18.5103C142.248 16.9113 143.644 15.5125 145.301 15.5125C146.486 15.5262 147.638 15.9104 148.594 16.6111L150.375 13.8155C148.948 12.7682 147.228 12.1966 145.458 12.1818C142.178 12.1818 139.55 14.1137 138.664 16.9277C139.912 17.075 141.077 17.6315 141.976 18.5103V18.5103Z" fill="white"/>
<path d="M148.686 21.4733C147.721 22.2324 146.529 22.6458 145.301 22.6475C144.732 22.6445 144.176 22.4833 143.693 22.1819C143.704 22.3229 143.71 22.4658 143.71 22.6108C143.71 23.6464 143.428 24.6624 142.893 25.5493C143.715 25.8366 144.581 25.9816 145.452 25.9782C148.719 25.9782 150.543 24.0893 150.543 24.0893L148.686 21.4733Z" fill="white"/>
<path d="M137.988 25.8169C139.757 25.8169 141.192 24.3824 141.192 22.6128C141.192 20.8433 139.757 19.4088 137.988 19.4088C136.218 19.4088 134.784 20.8433 134.784 22.6128C134.784 24.3824 136.218 25.8169 137.988 25.8169Z" fill="white"/>
</g>
<defs>
<clipPath id="clip0">
<rect width="187" height="28.7669" fill="white" transform="translate(0 2)"/>
</clipPath>
</defs>
</svg>
