<?xml version="1.0" encoding="utf-8"?>
<!-- Generator: Adobe Illustrator 25.2.3, SVG Export Plug-In . SVG Version: 6.00 Build 0)  -->
<svg version="1.1" id="Capa_1" xmlns="http://www.w3.org/2000/svg" xmlns:xlink="http://www.w3.org/1999/xlink" x="0px" y="0px"
	 viewBox="0 0 32 32" style="enable-background:new 0 0 32 32;" xml:space="preserve">
<style type="text/css">
	.st0{fill:url(#SVGID_1_);}
	.st1{fill:#FFFFFF;}
</style>
<linearGradient id="SVGID_1_" gradientUnits="userSpaceOnUse" x1="15.7584" y1="1.4884" x2="16.2521" y2="31.143">
	<stop  offset="0" style="stop-color:#FF6600"/>
	<stop  offset="0.5" style="stop-color:#F30078"/>
	<stop  offset="0.7485" style="stop-color:#DA008F"/>
	<stop  offset="1" style="stop-color:#C400A3"/>
</linearGradient>
<circle class="st0" cx="16" cy="16" r="15.77"/>
<g>
	<path class="st1" d="M10.27,11.51l5.26-5.25l-5.7,2.07L4.29,20.19c-0.34,0.72-0.02,1.59,0.7,1.93l5.27,2.45L10.27,11.51z"/>
	<path class="st1" d="M19.65,5.88c-0.56-0.56-1.48-0.56-2.04,0l-6.19,6.21V25.1c0,0.8,0.65,1.45,1.44,1.45l11.54,0
		c0.79,0,1.44-0.65,1.44-1.45V12.08L19.65,5.88z M18.63,6.84c0.5,0,0.9,0.4,0.9,0.9c0,0.5-0.4,0.9-0.9,0.9c-0.5,0-0.9-0.4-0.9-0.9
		C17.73,7.25,18.14,6.84,18.63,6.84z M22.82,24.46H14.5V11.97h2.77v9.71h5.55V24.46z"/>
</g>
</svg>
