<svg width="40" height="40" viewBox="0 0 40 40" fill="none" xmlns="http://www.w3.org/2000/svg">
<path fill-rule="evenodd" clip-rule="evenodd" d="M19.5827 10C15.211 10 11.666 13.625 11.666 18.095C11.666 24.285 19.5827 30 19.5827 30C19.5827 30 27.4994 24.285 27.4994 18.095C27.4994 13.625 23.9544 10 19.5827 10ZM19.5834 11.3333C23.2134 11.3333 26.1667 14.3666 26.1667 18.095C26.1667 22.4533 21.4684 26.7566 19.5767 28.31C17.2051 26.3766 13.0001 22.115 13.0001 18.095C13.0001 14.3666 15.9534 11.3333 19.5834 11.3333ZM15.8581 17.6194C15.8581 15.5144 17.5264 13.8094 19.5831 13.8094C21.6397 13.8094 23.3081 15.5144 23.3081 17.6194C23.3081 19.7227 21.6397 21.4277 19.5831 21.4277C17.5264 21.4277 15.8581 19.7227 15.8581 17.6194ZM21.9763 17.6193C21.9763 16.2526 20.9013 15.1426 19.583 15.1426C18.2647 15.1426 17.1897 16.2526 17.1897 17.6193C17.1897 18.9843 18.2647 20.0943 19.583 20.0943C20.9013 20.0943 21.9763 18.9843 21.9763 17.6193Z" fill="#FF6200"/>
</svg>
