<svg width="32" height="32" viewBox="0 0 32 32" fill="none" xmlns="http://www.w3.org/2000/svg">
<circle cx="16" cy="16" r="15.5" fill="white" stroke="#F0F0F0"/>
<path d="M13.2222 16.0002C13.2222 14.4659 14.466 13.2221 16.0003 13.2221C17.5328 13.2221 18.7749 14.4659 18.7749 16.0002C18.7749 17.531 17.5328 18.7766 16.0003 18.7766C14.466 18.7766 13.2222 17.531 13.2222 16.0002Z" fill="#3F752F"/>
<path d="M7.98828 10.213C7.98828 8.98631 8.98095 7.99194 10.2077 7.99194C11.4361 7.99194 12.4305 8.98631 12.4305 10.213C12.4305 11.4415 11.4361 12.4341 10.2077 12.4341C8.98095 12.4341 7.98828 11.4415 7.98828 10.213ZM19.5425 10.213C19.5425 8.98631 20.5368 7.99023 21.7636 7.99023C22.9903 7.99023 23.9881 8.98631 23.9881 10.213C23.9881 11.4415 22.9903 12.4341 21.7636 12.4359C20.5368 12.4359 19.5425 11.4415 19.5425 10.213ZM19.5425 21.7672C19.5425 20.5422 20.5368 19.5495 21.7636 19.5495C22.9954 19.5495 23.9881 20.5422 23.9881 21.7672C23.9881 22.9923 22.9954 23.99 21.7636 23.99C20.5368 23.99 19.5425 22.9923 19.5425 21.7672ZM7.98828 21.7672C7.98828 20.5422 8.98095 19.5495 10.2077 19.5495C11.4361 19.5495 12.4288 20.5422 12.4288 21.7672C12.4288 22.9923 11.4361 23.99 10.2077 23.99C8.98095 23.99 7.98828 22.9923 7.98828 21.7672Z" fill="#DAE254"/>
<path d="M9.4996 13.4995C8.11739 13.4995 7 14.6203 7 16.0008C7 17.3813 8.11739 18.5004 9.4996 18.5004C10.8784 18.5004 11.9992 17.3813 11.9992 16.0008C11.9992 14.6203 10.8784 13.4995 9.4996 13.4995Z" fill="#75C045"/>
<path d="M22.5004 13.4995C21.1182 13.4995 19.9974 14.6203 19.9974 16.0008C19.9974 17.3813 21.1182 18.5004 22.5004 18.5004C23.8792 18.5004 25 17.3813 25 16.0008C25 14.6186 23.8792 13.4995 22.5004 13.4995Z" fill="#75C045"/>
<path d="M15.9999 19.9991C14.6177 19.9991 13.4986 21.1199 13.4986 22.5004C13.4986 23.8809 14.6177 25 15.9999 25C17.377 25 18.4978 23.8809 18.4978 22.5004C18.4978 21.1199 17.377 19.9991 15.9999 19.9991Z" fill="#75C045"/>
<path d="M15.9999 7C14.6194 7 13.4986 8.1208 13.4986 9.50301C13.4986 10.8818 14.6194 11.9992 15.9999 11.9992C17.377 11.9992 18.4978 10.8818 18.4978 9.50301C18.4978 8.1208 17.377 7 15.9999 7Z" fill="#75C045"/>
</svg>
