<svg width="32" height="32" viewBox="0 0 32 32" fill="none" xmlns="http://www.w3.org/2000/svg">
<circle cx="16" cy="16" r="16" fill="#ADD500"/>
<path d="M19.1336 16.9888C19.1338 16.8251 19.1825 16.6651 19.2736 16.5291C19.3647 16.3931 19.494 16.2871 19.6453 16.2246C19.7966 16.1621 19.963 16.1458 20.1235 16.1779C20.284 16.2099 20.4315 16.2888 20.5471 16.4046C20.6628 16.5204 20.7416 16.668 20.7734 16.8285C20.8053 16.9891 20.7889 17.1555 20.7262 17.3067C20.6635 17.4579 20.5574 17.5872 20.4213 17.6781C20.2852 17.769 20.1251 17.8175 19.9614 17.8175C19.8527 17.8175 19.7449 17.7961 19.6444 17.7544C19.544 17.7128 19.4527 17.6517 19.3758 17.5747C19.2989 17.4978 19.2379 17.4064 19.1964 17.3059C19.1548 17.2053 19.1335 17.0976 19.1336 16.9888ZM12.8995 14.1194H15.6436L15.8082 13.3544L16.6483 9.26592C16.9075 8.1074 17.1459 7.0977 18.0276 6.25267C18.6215 5.66732 19.4207 5.33729 20.2546 5.33301C20.2546 5.33301 20.583 5.33526 20.7898 5.36331L20.7282 5.63835C20.4875 5.60343 20.2429 5.60343 20.0022 5.63835C19.686 5.71164 19.4 5.88067 19.1834 6.12239C18.7247 6.582 18.5578 7.28091 18.2655 8.53036L17.2386 13.3933L17.0835 14.1171H20.1365L20.0203 14.5356H16.9939L15.2401 22.7348C14.9822 23.8924 14.7425 24.9025 13.8612 25.748C13.2628 26.3354 12.4582 26.665 11.6197 26.6663L11.332 26.6605L11.3823 26.3922C11.4708 26.3957 11.5594 26.3921 11.6473 26.3813C11.8536 26.3647 12.0541 26.3052 12.2361 26.2067C12.418 26.1081 12.5774 25.9727 12.7041 25.8091C13.1379 25.2531 13.3283 24.7184 13.6219 23.4694L15.5513 14.536H12.7842L12.8995 14.1194Z" fill="white"/>
</svg>
