<svg width="65" height="15" viewBox="0 0 65 15" fill="none" xmlns="http://www.w3.org/2000/svg">
<path d="M43.2097 2.31104H26.6481C26.21 2.31104 25.8574 2.67235 25.8574 3.11031V13.1505C25.8574 13.5994 26.21 13.9607 26.6481 13.9497H43.2097C43.6478 13.9497 44.0004 13.5884 44.0004 13.1505V3.12125C44.0004 2.67235 43.6478 2.31104 43.2097 2.31104" fill="#3FAE2A"/>
<path fill-rule="evenodd" clip-rule="evenodd" d="M32.3217 7.41325C32.247 7.36945 32.1615 7.33661 32.076 7.33661C31.9585 7.33661 31.8409 7.39135 31.7661 7.47894C31.7508 7.50257 31.7133 7.53752 31.6855 7.56343C31.6747 7.57355 31.6653 7.58228 31.6593 7.58843C30.9968 8.21252 29.9711 8.17967 29.362 7.50084C28.753 6.82201 28.7851 5.77091 29.4475 5.14683C29.7467 4.86215 30.142 4.69792 30.5587 4.69792C30.9541 4.67602 31.3387 4.82931 31.6272 5.10303L31.6379 5.11398C31.6593 5.12493 31.6807 5.12493 31.702 5.12493L32.4713 5.00449C32.5461 4.99354 32.5141 4.92785 32.5141 4.92785C32.3752 4.67602 31.8089 3.77821 30.4839 3.78916C29.0949 3.80011 28.0478 4.9169 28.0371 6.3731C28.0478 7.79646 29.1804 8.95705 30.5801 8.9461C31.2639 8.9461 31.9157 8.65048 32.3859 8.14683C32.3935 8.13504 32.4026 8.12325 32.412 8.11095C32.4289 8.08899 32.447 8.06541 32.4607 8.03734C32.5034 7.96069 32.5248 7.8731 32.5248 7.78551C32.5141 7.64318 32.4393 7.50084 32.3217 7.41325ZM41.1582 8.03734L41.671 8.56288C41.7458 8.65048 41.7886 8.75996 41.7886 8.8804C41.7886 9.13223 41.5962 9.32931 41.3505 9.32931C41.265 9.32931 41.1795 9.29646 41.1047 9.25267L39.9508 8.04829L39.9401 8.03734C39.8546 7.94975 39.7798 7.86215 39.705 7.76361C39.5554 7.61033 39.4699 7.39135 39.4699 7.17237C39.4699 6.84391 39.6623 6.53734 40.079 6.4388C40.4957 6.34026 40.7842 6.13223 40.7842 5.73807C40.7842 5.34391 40.4209 5.03734 40.0042 5.03734H39.0425V8.54099C39.0425 8.56288 39.0319 8.58478 39.0212 8.59573C39.0105 8.60668 38.9998 8.60668 38.9891 8.60668L38.2732 8.71617H38.2626C38.2519 8.72712 38.2305 8.72712 38.2091 8.71617C38.1911 8.70694 38.1883 8.69771 38.1814 8.67535L38.1771 8.66142V4.23807C38.1771 4.21617 38.1878 4.19427 38.1984 4.18332C38.2198 4.17237 38.2305 4.17237 38.2519 4.17237H39.9935C40.8162 4.17237 41.6497 4.73077 41.6497 5.74902C41.6497 6.61398 41.1795 7.06288 40.4743 7.21617L40.3675 7.23807L41.1582 8.03734ZM36.1363 10.9388C36.2004 11.0264 36.2431 11.1249 36.2752 11.2344C36.3179 11.3549 36.3286 11.4862 36.3179 11.6067C36.3179 11.7381 36.2965 11.8695 36.2645 11.9899C36.2431 12.0994 36.1897 12.2089 36.1149 12.2965C36.0401 12.3841 35.9546 12.4607 35.8478 12.5045C35.7302 12.5592 35.5913 12.5811 35.4631 12.5811C35.3456 12.5811 35.228 12.5702 35.1105 12.5483C34.993 12.5373 34.8861 12.5045 34.7793 12.4497C34.7579 12.4388 34.7472 12.4278 34.7365 12.4169C34.7258 12.395 34.7258 12.3841 34.7258 12.3622V10.249V10.2271C34.7258 10.0957 34.822 9.98624 34.9502 9.98624H35.0571C35.0784 9.98624 35.0998 9.98624 35.1105 9.99719C35.1212 10.0191 35.1212 10.03 35.1212 10.0519V10.7308C35.196 10.7089 35.2601 10.6979 35.3349 10.687C35.4097 10.676 35.4738 10.676 35.5486 10.676C35.6661 10.6651 35.7943 10.687 35.9012 10.7417C35.9867 10.7855 36.0721 10.8512 36.1363 10.9388ZM30.4519 10.0957C30.484 10.0957 30.5053 10.1067 30.516 10.1176C30.5226 10.1244 30.5251 10.1353 30.5286 10.1505C30.5308 10.1598 30.5333 10.1708 30.5374 10.1833V10.4023C30.5374 10.4242 30.5267 10.4461 30.516 10.468C30.516 10.4789 30.4946 10.4899 30.4626 10.4899H29.5544C29.4903 10.4789 29.4261 10.5008 29.3727 10.5446C29.33 10.5884 29.3193 10.6432 29.3193 10.7089V11.114H30.3344C30.3664 11.114 30.3771 11.1249 30.3878 11.1359C30.3985 11.1578 30.3985 11.1797 30.3985 11.2016V11.3987C30.3985 11.4096 30.3985 11.4315 30.3878 11.4534C30.3878 11.4643 30.3664 11.4753 30.3344 11.4753H29.3193V12.2746V12.2965C29.3193 12.4278 29.2124 12.5373 29.0842 12.5373H28.9774C28.956 12.5373 28.9346 12.5373 28.9133 12.5264C28.9026 12.5154 28.8919 12.5045 28.8919 12.4716V10.7308C28.8919 10.6432 28.9026 10.5665 28.924 10.4899C28.9667 10.3366 29.0735 10.2052 29.2124 10.1505C29.3086 10.1067 29.4048 10.0957 29.5009 10.0957H30.4519ZM37.2795 10.6651C37.536 10.6651 37.7283 10.7308 37.8565 10.8731C37.9847 11.0264 38.0488 11.2344 38.0382 11.4424C38.0382 11.4972 38.0382 11.541 38.0168 11.5957C38.0061 11.6286 37.9847 11.6614 37.9527 11.6833C37.9313 11.7052 37.8993 11.7271 37.8672 11.7271C37.8352 11.7381 37.7924 11.7381 37.7604 11.7381H36.8628C36.8628 11.8147 36.8735 11.8914 36.9056 11.968C36.9269 12.0227 36.959 12.0775 37.0017 12.1213C37.0445 12.1541 37.0979 12.187 37.1513 12.2089L37.1753 12.213L37.1753 12.213C37.2292 12.2224 37.277 12.2308 37.333 12.2308C37.3993 12.2308 37.4573 12.2221 37.5218 12.2126L37.5467 12.2089C37.5965 12.2004 37.6463 12.1786 37.6911 12.1591C37.7039 12.1535 37.7164 12.1481 37.7283 12.1432C37.771 12.1322 37.7924 12.1322 37.8031 12.1651L37.8886 12.3622C37.9099 12.3841 37.8993 12.4278 37.8672 12.4388H37.8565C37.771 12.4935 37.6749 12.5264 37.5787 12.5483C37.4825 12.5702 37.3864 12.5811 37.2902 12.5811C37.0552 12.603 36.8308 12.5154 36.6598 12.3512C36.5102 12.1979 36.4461 11.957 36.4461 11.6395C36.4461 11.4972 36.4675 11.3658 36.5102 11.2344C36.5423 11.1249 36.6064 11.0154 36.6812 10.9278C36.756 10.8403 36.8415 10.7855 36.9376 10.7417C37.0658 10.687 37.1834 10.6651 37.2795 10.6651ZM31.9691 12.3403C31.9691 12.3841 31.9478 12.4278 31.905 12.4497C31.8516 12.4716 31.7982 12.4935 31.7448 12.5045C31.6913 12.5264 31.6272 12.5373 31.5631 12.5373L31.5631 12.5373C31.499 12.5483 31.4349 12.5592 31.3815 12.5592H31.2105C31.0823 12.5592 30.9648 12.5483 30.8365 12.5154C30.7511 12.4935 30.6656 12.4497 30.6015 12.395C30.5481 12.3403 30.5053 12.2855 30.4839 12.2089C30.4626 12.1432 30.4519 12.0665 30.4519 11.9899C30.4519 11.9132 30.4626 11.8257 30.4946 11.76C30.516 11.6833 30.5587 11.6176 30.6229 11.5629C30.687 11.4972 30.7724 11.4534 30.8472 11.4315C30.9541 11.3987 31.0716 11.3768 31.1892 11.3768H31.5738V11.322C31.5738 11.2782 31.5738 11.2344 31.5631 11.2016C31.5524 11.1687 31.5311 11.1359 31.5097 11.103C31.4776 11.0702 31.4456 11.0483 31.4028 11.0373C31.3494 11.0154 31.2853 11.0154 31.2319 11.0154C31.1464 11.0154 31.0609 11.0264 30.9755 11.0373L30.9755 11.0373L30.9754 11.0373C30.9007 11.0483 30.8259 11.0592 30.7511 11.0811H30.6976C30.687 11.0702 30.6763 11.0592 30.6763 11.0373L30.6335 10.8512C30.6229 10.8184 30.6335 10.7855 30.6656 10.7746C30.7618 10.7308 30.8686 10.7089 30.9755 10.6979L30.9755 10.6979C31.0823 10.687 31.1892 10.676 31.296 10.676C31.5311 10.676 31.702 10.7308 31.8196 10.8403C31.9371 10.9607 32.0012 11.1359 31.9798 11.3111L31.9691 12.3403ZM31.5524 11.6833H31.2426C31.1998 11.6833 31.1678 11.6833 31.1144 11.6943C31.0859 11.6943 31.0574 11.704 31.0289 11.7137C31.0146 11.7186 31.0004 11.7235 30.9861 11.7271C30.9434 11.749 30.9113 11.7819 30.89 11.8147C30.8579 11.8695 30.8472 11.9242 30.8472 11.9789C30.8365 12.0665 30.8793 12.1432 30.9434 12.187C31.0289 12.2308 31.1144 12.2527 31.2105 12.2527H31.2746C31.3067 12.2527 31.3387 12.2527 31.3601 12.2417L31.4563 12.2198C31.4723 12.2143 31.4883 12.2116 31.5044 12.2089C31.5204 12.2061 31.5364 12.2034 31.5524 12.1979V11.6833ZM33.7856 11.6833H34.1061L34.0954 12.1979C34.0794 12.2034 34.0634 12.2061 34.0474 12.2089C34.0313 12.2116 34.0153 12.2143 33.9993 12.2198C33.9672 12.2308 33.9352 12.2417 33.9031 12.2417C33.8711 12.2527 33.839 12.2527 33.8069 12.2527H33.7428C33.6574 12.2527 33.5612 12.2308 33.4864 12.187C33.4223 12.1432 33.3796 12.0665 33.3902 11.9789C33.3902 11.9242 33.4009 11.8695 33.433 11.8147C33.4543 11.7819 33.4864 11.749 33.5291 11.7271C33.5434 11.7235 33.5576 11.7186 33.5719 11.7137C33.6004 11.704 33.6289 11.6943 33.6574 11.6943C33.7001 11.6833 33.7428 11.6833 33.7856 11.6833ZM34.5015 12.3403C34.5015 12.3841 34.4801 12.4278 34.4374 12.4497C34.3839 12.4716 34.3305 12.4935 34.2771 12.5045C34.2237 12.5264 34.1596 12.5373 34.1061 12.5373L34.0822 12.5415L34.0821 12.5415C34.0283 12.5509 33.9804 12.5592 33.9245 12.5592H33.7535C33.6253 12.5592 33.4971 12.5483 33.3796 12.5154C33.2941 12.4935 33.2086 12.4497 33.1445 12.395C33.0911 12.3403 33.0483 12.2855 33.027 12.2089C33.0056 12.1432 32.9949 12.0665 32.9949 11.9899C32.9949 11.9132 33.0056 11.8257 33.0376 11.76C33.059 11.6833 33.1017 11.6176 33.1659 11.5629C33.23 11.4972 33.3154 11.4534 33.3902 11.4315C33.4971 11.3987 33.6146 11.3768 33.7322 11.3768H34.1168V11.322C34.1168 11.2782 34.1168 11.2344 34.1061 11.2016C34.0954 11.1687 34.0848 11.1359 34.0527 11.103C34.0206 11.0702 33.9886 11.0483 33.9459 11.0373C33.8924 11.0154 33.8283 11.0154 33.7749 11.0154C33.6894 11.0154 33.6039 11.0264 33.5185 11.0373L33.5185 11.0373L33.5184 11.0373C33.4437 11.0483 33.3689 11.0592 33.2941 11.0811H33.2407C33.23 11.0811 33.2193 11.0592 33.2193 11.0373L33.1659 10.8512C33.1552 10.8184 33.1659 10.7855 33.1979 10.7746C33.2941 10.7308 33.4009 10.7089 33.5078 10.6979L33.5078 10.6979C33.6146 10.687 33.7215 10.676 33.8283 10.676C34.0634 10.676 34.2343 10.7308 34.3519 10.8403C34.4694 10.9716 34.5228 11.1359 34.5122 11.3111L34.5015 12.3403ZM36.991 11.1359C37.0658 11.0483 37.1727 11.0045 37.2795 11.0045C37.3436 11.0045 37.4078 11.0154 37.4505 11.0264C37.5039 11.0483 37.536 11.0811 37.568 11.1249C37.6001 11.1687 37.6215 11.2125 37.6321 11.2673C37.6428 11.322 37.6535 11.3877 37.6535 11.4424H36.8735C36.8735 11.3877 36.8842 11.333 36.9056 11.2782C36.9269 11.2235 36.959 11.1797 36.991 11.1359ZM40.6346 11.6833H40.9551V12.1979C40.9391 12.2034 40.9231 12.2061 40.9071 12.2089C40.891 12.2116 40.875 12.2143 40.859 12.2198C40.8269 12.2308 40.7949 12.2417 40.7628 12.2417C40.7414 12.2527 40.7094 12.2527 40.6773 12.2527H40.6132C40.5171 12.2527 40.4316 12.2308 40.3461 12.187C40.282 12.1432 40.2393 12.0665 40.2499 11.9789C40.2499 11.9242 40.2606 11.8695 40.2927 11.8147C40.314 11.7819 40.3461 11.749 40.3888 11.7271C40.4031 11.7235 40.4173 11.7186 40.4316 11.7137C40.4601 11.704 40.4886 11.6943 40.5171 11.6943C40.5598 11.6833 40.6025 11.6833 40.6346 11.6833ZM41.3718 12.3403C41.3718 12.3841 41.3505 12.4278 41.3077 12.4497C41.2543 12.4716 41.2009 12.4935 41.1475 12.5045C41.094 12.5264 41.0299 12.5373 40.9658 12.5373L40.9658 12.5373C40.9017 12.5483 40.8376 12.5592 40.7842 12.5592H40.6132C40.485 12.5592 40.3568 12.5483 40.2393 12.5154C40.1538 12.4935 40.079 12.4497 40.0042 12.395C39.9508 12.3403 39.908 12.2855 39.8867 12.2089C39.8653 12.1432 39.8546 12.0665 39.8546 11.9899C39.8546 11.9132 39.8653 11.8257 39.8973 11.76C39.9187 11.6833 39.9721 11.6176 40.0256 11.5629C40.0897 11.4972 40.1645 11.4534 40.2499 11.4315C40.3568 11.3987 40.4743 11.3768 40.5919 11.3768H40.9765V11.322C40.9765 11.2782 40.9765 11.2344 40.9658 11.2016C40.9551 11.1687 40.9338 11.1359 40.9124 11.103L40.9124 11.103C40.8803 11.0702 40.8483 11.0483 40.8055 11.0373C40.7521 11.0154 40.688 11.0154 40.6346 11.0154C40.5491 11.0154 40.4636 11.0264 40.3782 11.0373L40.3782 11.0373C40.3034 11.0483 40.2393 11.0592 40.1645 11.0811H40.111C40.1003 11.0702 40.0897 11.0592 40.0897 11.0373L40.0362 10.8512C40.0256 10.8184 40.0362 10.7855 40.0683 10.7746C40.1645 10.7308 40.2713 10.7089 40.3782 10.6979L40.3782 10.6979C40.485 10.687 40.5919 10.676 40.6987 10.676C40.9338 10.676 41.1047 10.7308 41.2223 10.8403C41.3398 10.9716 41.3932 11.1359 41.3825 11.3111L41.3718 12.3403ZM35.8798 11.9023C35.8584 11.968 35.8264 12.0337 35.7836 12.0884C35.7409 12.1322 35.6982 12.176 35.6341 12.1979C35.57 12.2198 35.5058 12.2308 35.4417 12.2308C35.3883 12.2308 35.3349 12.2308 35.2815 12.2198C35.2547 12.2143 35.2254 12.2089 35.196 12.2034C35.1666 12.1979 35.1372 12.1924 35.1105 12.187V11.0702C35.1667 11.051 35.2311 11.0402 35.2894 11.0305L35.2894 11.0305L35.3135 11.0264C35.3669 11.0154 35.4204 11.0154 35.4738 11.0154C35.602 11.0045 35.7195 11.0702 35.7943 11.1687C35.8798 11.3001 35.9226 11.4643 35.9119 11.6286C35.9226 11.7162 35.9119 11.8038 35.8798 11.9023ZM38.9143 12.4497L38.893 12.2636C38.893 12.2527 38.893 12.2308 38.8823 12.2308C38.8716 12.2198 38.8609 12.2198 38.8395 12.2308L38.7861 12.2417H38.722C38.6899 12.2417 38.6579 12.2308 38.6258 12.2089C38.6045 12.176 38.5938 12.1322 38.6045 12.0884V10.0519C38.6045 10.03 38.6045 10.0191 38.5938 10.0081C38.5724 9.99719 38.5617 9.99719 38.5404 9.99719H38.4335C38.3053 9.99719 38.2091 10.1067 38.2091 10.2381V10.249V12.1651C38.1984 12.2746 38.2305 12.395 38.2946 12.4826C38.3694 12.5483 38.4762 12.5811 38.5724 12.5702C38.6151 12.5702 38.6686 12.5702 38.722 12.5592L38.722 12.5592C38.7754 12.5483 38.8288 12.5373 38.8716 12.5264C38.8756 12.5223 38.881 12.5198 38.8869 12.517C38.8967 12.5124 38.9076 12.5073 38.9143 12.4935C38.925 12.4826 38.925 12.4716 38.9143 12.4497ZM39.7691 12.2527L39.7905 12.4497C39.8012 12.4716 39.8012 12.4826 39.8012 12.4935C39.7958 12.499 39.7878 12.5045 39.7798 12.51C39.7718 12.5154 39.7638 12.5209 39.7584 12.5264L39.5982 12.5592C39.5341 12.5702 39.4806 12.5702 39.4379 12.5702C39.3417 12.5811 39.2349 12.5483 39.1601 12.4826C39.096 12.395 39.0639 12.2746 39.0746 12.1651V10.26V10.2381C39.0746 10.1067 39.1708 9.99719 39.299 9.99719H39.4058C39.4272 9.99719 39.4379 9.99719 39.4593 10.0081C39.4699 10.0081 39.4699 10.03 39.4699 10.0519V12.0775C39.4699 12.1213 39.4699 12.1651 39.4913 12.1979C39.5234 12.2198 39.5554 12.2308 39.5875 12.2308H39.6516L39.7157 12.2198H39.7584C39.7584 12.2198 39.7691 12.2417 39.7691 12.2527ZM32.9308 12.4497L32.9094 12.2636C32.9094 12.2417 32.8987 12.2308 32.8987 12.2308H32.856L32.7919 12.2417H32.7278C32.6957 12.2417 32.6637 12.2308 32.6316 12.2089C32.6102 12.176 32.5996 12.1322 32.6102 12.0884V10.0519C32.6102 10.03 32.6102 10.0081 32.5996 10.0081C32.5889 9.99719 32.5675 9.99719 32.5461 9.99719H32.4393C32.3111 9.99719 32.2149 10.1067 32.2149 10.2381V10.26V12.1651C32.2042 12.2746 32.2363 12.395 32.3004 12.4826C32.3752 12.5483 32.482 12.5811 32.5782 12.5702C32.6209 12.5702 32.6744 12.5702 32.7278 12.5592L32.888 12.5264C32.8934 12.5209 32.9014 12.5154 32.9094 12.51C32.9174 12.5045 32.9254 12.499 32.9308 12.4935C32.9415 12.4826 32.9415 12.4716 32.9308 12.4497ZM36.35 4.58843C36.5102 4.24902 36.7132 3.98624 37.0765 3.98624C37.4398 3.99719 37.7283 4.29281 37.7497 4.66507V8.72712C37.7497 8.75996 37.739 8.77091 37.7283 8.78186C37.7176 8.79281 37.6962 8.79281 37.6856 8.79281L36.959 8.9023H36.9483H36.8949C36.8735 8.89135 36.8628 8.8804 36.8628 8.84756V5.42055L35.6127 8.04829L35.399 8.50814C35.399 8.50814 35.3883 8.53004 35.3776 8.53004C35.3735 8.52585 35.3695 8.52327 35.366 8.52106C35.3603 8.51749 35.3563 8.51491 35.3563 8.50814L35.0891 8.04829L33.839 5.9023V8.86945C33.8283 9.09938 33.6467 9.28551 33.4223 9.29646C33.1765 9.30741 32.9735 9.12128 32.9628 8.86945V4.99354C32.9628 4.96069 32.9735 4.94975 32.9842 4.9388C32.9896 4.9388 32.9949 4.93606 33.0002 4.93332C33.0056 4.93058 33.0109 4.92785 33.0163 4.92785L34.1596 4.76361H34.1809C34.1916 4.76361 34.213 4.78551 34.2237 4.80741L34.4801 5.26726L35.3242 6.73442C35.3242 6.73442 35.3349 6.75631 35.3456 6.75631C35.3563 6.75631 35.3669 6.73442 35.3669 6.73442L36.35 4.58843Z" fill="white"/>
<path d="M0.747942 1.65315C1.2715 1.11666 1.94465 0.864834 2.76739 0.864834L17.0103 1.47797C17.021 1.13856 17.1599 0.810089 17.395 0.569213C18.0361 -0.0548744 19.0405 -0.0439256 19.6602 0.591111L24.5752 5.39768C25.6437 6.49257 25.6437 8.38673 24.5859 9.47067L19.6709 14.5072C18.7413 15.4597 17.0638 14.9342 17.0103 13.6532L2.76739 14.2663C1.32493 14.2663 0 13.4342 0 11.7152V3.37213C0 2.62761 0.352601 2.05826 0.747942 1.65315" fill="#EB0029"/>
<path d="M63.7342 13.9501H46.8724C46.3944 13.9501 46.012 13.5696 46 13.094V3.16612C46 2.69053 46.3944 2.31006 46.8724 2.31006H63.7342C64.2122 2.31006 64.5946 2.69053 64.5946 3.16612V13.094C64.5946 13.5696 64.2002 13.9501 63.7342 13.9501Z" fill="#53575A"/>
<path d="M48.6291 8.38587C48.5574 8.39776 48.4857 8.37398 48.4259 8.32642C48.3901 8.27887 48.3662 8.20753 48.3781 8.14808V5.74637C48.3781 5.67503 48.3901 5.60369 48.4259 5.55613C48.4857 5.50857 48.5574 5.48479 48.6291 5.49668H49.4297C49.6448 5.48479 49.8719 5.53235 50.0751 5.61558C50.2424 5.68692 50.3858 5.79392 50.5053 5.92471C50.6128 6.0555 50.6965 6.21006 50.7443 6.37652C50.7921 6.55486 50.816 6.73321 50.816 6.92344C50.816 7.10179 50.7921 7.29202 50.7562 7.47037C50.7204 7.63682 50.6367 7.80328 50.5411 7.93406C50.4336 8.07674 50.2902 8.18375 50.1348 8.25509C49.9316 8.33831 49.7165 8.38587 49.5014 8.37398L48.6291 8.38587ZM50.1348 6.92344C50.1348 6.80455 50.1229 6.68565 50.099 6.57864C50.0751 6.48352 50.0392 6.38841 49.9795 6.30518C49.9197 6.22195 49.836 6.1625 49.7404 6.12684C49.6209 6.07928 49.4895 6.0555 49.358 6.0555H49.0234V7.83895H49.37C49.4895 7.83895 49.6209 7.81517 49.7404 7.76761C49.836 7.73194 49.9197 7.6606 49.9795 7.58926C50.0392 7.50604 50.0751 7.41092 50.099 7.30391C50.1229 7.18502 50.1348 7.05423 50.1348 6.92344Z" fill="white"/>
<path d="M53.3012 8.29037C53.3012 8.31415 53.3012 8.33792 53.2893 8.3617C53.2654 8.37359 53.2415 8.38548 53.2176 8.38548H51.9508C51.8194 8.38548 51.6879 8.3617 51.5565 8.31415C51.4609 8.27848 51.3772 8.20714 51.3175 8.1358C51.2577 8.06446 51.2099 7.98123 51.198 7.89801C51.1741 7.80289 51.1621 7.71966 51.1621 7.62454V6.24534C51.1621 6.15022 51.1741 6.05511 51.2099 5.95999C51.2338 5.87676 51.2816 5.79353 51.3414 5.7222C51.4131 5.65086 51.4967 5.59141 51.5804 5.55574C51.6999 5.50818 51.8194 5.4844 51.9508 5.49629H53.1817C53.2056 5.49629 53.2295 5.49629 53.2534 5.52007C53.2654 5.54385 53.2654 5.56763 53.2654 5.6033V5.95999C53.2654 5.98377 53.2654 6.00755 53.2534 6.03133C53.2295 6.04322 53.2056 6.05511 53.1817 6.05511H52.0823C51.9986 6.04322 51.915 6.067 51.8552 6.12644C51.8194 6.174 51.7955 6.24534 51.7955 6.30479V6.61392H53.0264C53.0503 6.61392 53.0741 6.61392 53.098 6.6377C53.11 6.66148 53.11 6.68526 53.11 6.72093V7.04195C53.11 7.06573 53.11 7.08951 53.098 7.11329C53.0741 7.12518 53.0503 7.13707 53.0264 7.13707H51.7955V7.61265C51.7835 7.68399 51.8074 7.75533 51.8672 7.81478C51.9269 7.85045 51.9986 7.87423 52.0703 7.86234H53.2056C53.2415 7.86234 53.2654 7.86234 53.2773 7.88612C53.2893 7.9099 53.2893 7.93368 53.2893 7.96934L53.3012 8.29037ZM52.6439 4.52134C52.6559 4.50945 52.6798 4.49756 52.6917 4.49756C52.7037 4.49756 52.7276 4.49756 52.7515 4.52134L53.0502 4.84236C53.0622 4.85425 53.0742 4.86614 53.0742 4.88992C53.0742 4.90181 53.0622 4.9137 53.0502 4.92559L52.2257 5.34173C52.2018 5.35362 52.1779 5.36551 52.1659 5.35362C52.154 5.35362 52.1301 5.34173 52.1181 5.32984L51.9508 5.15149C51.9389 5.1396 51.9269 5.12771 51.9269 5.10393C51.9269 5.09204 51.9269 5.08015 51.9628 5.05637L52.6439 4.52134Z" fill="white"/>
<path d="M55.4764 6.80455C55.5481 6.82833 55.6198 6.87588 55.6796 6.92344C55.7393 6.971 55.7871 7.03045 55.823 7.0899C55.8588 7.14935 55.8827 7.22068 55.9066 7.29202C55.9186 7.36336 55.9305 7.4347 55.9305 7.50604C55.9305 7.63682 55.9066 7.75572 55.8469 7.87462C55.7991 7.98162 55.7154 8.07674 55.6318 8.14808C55.5362 8.23131 55.4286 8.29076 55.3091 8.32642C55.1777 8.37398 55.0462 8.38587 54.9028 8.38587H53.8273C53.7556 8.39776 53.6839 8.37398 53.6242 8.32642C53.5883 8.27887 53.5644 8.20753 53.5764 8.14808V5.74637C53.5764 5.67503 53.5883 5.60369 53.6242 5.55613C53.6839 5.50857 53.7556 5.48479 53.8273 5.49668H54.8789C54.9984 5.49668 55.1299 5.50857 55.2494 5.53235C55.3569 5.55613 55.4525 5.60369 55.5481 5.66314C55.6318 5.72259 55.7035 5.79392 55.7393 5.88904C55.7871 5.99605 55.811 6.10306 55.811 6.22195C55.811 6.34085 55.7752 6.44786 55.7154 6.54297C55.6557 6.63809 55.572 6.72132 55.4764 6.76888V6.80455ZM54.2217 6.59053H54.8072C54.8431 6.59053 54.8789 6.59053 54.9148 6.57864C54.9506 6.56675 54.9865 6.55486 55.0223 6.53108C55.0582 6.5073 55.0821 6.48352 55.094 6.44786C55.1179 6.4003 55.1299 6.35274 55.1179 6.30518C55.1179 6.23384 55.094 6.1625 55.0343 6.11495C54.9745 6.06739 54.8909 6.04361 54.8192 6.04361H54.2097V6.59053H54.2217ZM55.2613 7.45848C55.2613 7.36336 55.2255 7.25635 55.1538 7.18502C55.0701 7.11368 54.9506 7.07801 54.8431 7.07801H54.2217V7.81517H54.8431C54.9148 7.81517 54.9745 7.80328 55.0462 7.7795C55.094 7.75572 55.1418 7.73194 55.1777 7.68438C55.2135 7.64871 55.2255 7.61304 55.2494 7.56549C55.2494 7.54171 55.2613 7.50604 55.2613 7.45848Z" fill="white"/>
<path d="M56.971 8.36216C56.9471 8.37405 56.9112 8.38594 56.8873 8.37405H56.4326C56.4087 8.37405 56.3848 8.37405 56.3608 8.35027C56.3369 8.33838 56.3369 8.30272 56.3369 8.27894V5.57998C56.3369 5.5562 56.3369 5.53242 56.3608 5.50864C56.3848 5.49675 56.4087 5.48486 56.4326 5.48486H56.8873C56.9112 5.48486 56.9471 5.48486 56.971 5.49675C56.983 5.52053 56.995 5.54431 56.995 5.56809V8.27894C56.995 8.32649 56.995 8.35027 56.971 8.36216Z" fill="white"/>
<path d="M59.4915 6.03134H58.7147V8.29038C58.7147 8.31416 58.7147 8.33794 58.6908 8.36172C58.6669 8.37361 58.631 8.3855 58.6071 8.37361H58.153C58.1291 8.37361 58.1052 8.37361 58.0813 8.34983C58.0574 8.33794 58.0574 8.30227 58.0574 8.27849V6.01945H57.2926C57.2568 6.01945 57.2209 5.99567 57.209 5.96C57.209 5.94811 57.209 5.94811 57.209 5.93623V5.56764C57.209 5.54387 57.209 5.52009 57.2209 5.49631C57.2448 5.48442 57.2687 5.47253 57.2926 5.48442H59.4915C59.5154 5.48442 59.5393 5.48442 59.5632 5.49631C59.5751 5.52009 59.5871 5.54387 59.5751 5.56764V5.93623C59.5751 6.00756 59.5393 6.03134 59.4915 6.03134Z" fill="white"/>
<path d="M62.217 6.93542C62.217 7.14944 62.1931 7.36345 62.1333 7.56558C62.0855 7.74392 62.0019 7.89849 61.8824 8.04116C61.7629 8.17195 61.6195 8.27895 61.4641 8.3384C61.2729 8.40974 61.0698 8.44541 60.8666 8.44541C60.4961 8.46919 60.1257 8.32651 59.8747 8.05305C59.6357 7.73203 59.5282 7.35156 59.5521 6.9592C59.5521 6.74519 59.576 6.53118 59.6477 6.32905C59.7074 6.15071 59.7911 5.99614 59.9106 5.85347C60.0301 5.72268 60.1615 5.62756 60.3288 5.55623C60.5081 5.48489 60.6874 5.44922 60.8786 5.44922C61.0817 5.44922 61.2849 5.48489 61.4641 5.55623C61.6195 5.61567 61.7629 5.72268 61.8824 5.85347C62.0019 5.98425 62.0855 6.15071 62.1333 6.31716C62.1931 6.51929 62.217 6.72141 62.217 6.93542ZM61.5358 6.94731C61.5358 6.82842 61.5239 6.69763 61.5119 6.57874C61.5 6.47173 61.4641 6.37661 61.4163 6.28149C61.3685 6.19827 61.2968 6.12693 61.2132 6.07937C61.1176 6.01992 60.9981 5.99614 60.8905 6.00803C60.7949 6.00803 60.6874 6.03181 60.6037 6.07937C60.5201 6.12693 60.4483 6.19827 60.4005 6.2696C60.3408 6.35283 60.3049 6.45984 60.281 6.55496C60.2571 6.67385 60.2452 6.79275 60.2452 6.89976C60.2452 7.03054 60.2571 7.16133 60.281 7.29211C60.293 7.39912 60.3408 7.49424 60.3886 7.58936C60.4364 7.67258 60.5081 7.73203 60.5918 7.7677C60.6874 7.81526 60.7949 7.83904 60.9025 7.83904C61.1056 7.85093 61.3088 7.74392 61.4044 7.56558C61.4522 7.47046 61.488 7.37534 61.5119 7.26833C61.5358 7.14944 61.5478 7.04243 61.5478 6.92354" fill="white"/>
<path d="M51.3414 10.8471H50.971C50.9232 10.8471 50.8873 10.8471 50.8395 10.8471C50.7917 10.8471 50.7439 10.859 50.6961 10.8828C50.6483 10.9066 50.6125 10.9422 50.5886 10.9779C50.5527 11.0255 50.5408 11.0849 50.5408 11.1444C50.5288 11.2276 50.5766 11.3108 50.6483 11.3584C50.7439 11.4059 50.8395 11.4297 50.9351 11.4178H51.0068C51.0427 11.4178 51.0785 11.4178 51.1024 11.4059L51.21 11.3822C51.2458 11.3703 51.2817 11.3703 51.3175 11.3584L51.3414 10.8471ZM51.7836 11.5248C51.7836 11.5724 51.7597 11.62 51.7119 11.6437C51.6522 11.6675 51.5924 11.6913 51.5326 11.7032C51.4729 11.727 51.4012 11.7389 51.3295 11.7389C51.2578 11.7389 51.198 11.7507 51.1263 11.7626H50.9351C50.7917 11.7626 50.6603 11.7507 50.5288 11.7151C50.4332 11.6913 50.3496 11.6437 50.2659 11.5843C50.2062 11.5367 50.1584 11.4654 50.1345 11.3941C50.1106 11.3227 50.0986 11.2395 50.0986 11.1563C50.0986 11.073 50.1106 10.9898 50.1464 10.9066C50.1703 10.8233 50.2301 10.752 50.2898 10.7045C50.3615 10.645 50.4571 10.5856 50.5408 10.5618C50.6603 10.5261 50.7917 10.5023 50.9232 10.5023H51.3414V10.4429C51.3414 10.3953 51.3414 10.3596 51.3295 10.3121C51.3175 10.2764 51.2936 10.2408 51.2697 10.2051C51.2339 10.1813 51.198 10.1575 51.1502 10.1456C51.0905 10.1219 51.0188 10.1219 50.959 10.1219C50.8634 10.1219 50.7678 10.1337 50.6842 10.1456C50.6005 10.1575 50.5169 10.1694 50.4332 10.1932C50.4093 10.1932 50.3974 10.1932 50.3735 10.1932C50.3615 10.1813 50.3496 10.1694 50.3496 10.1456L50.3018 9.94351C50.2898 9.90784 50.3018 9.88406 50.3376 9.87217C50.4452 9.8365 50.5647 9.80083 50.6842 9.78894C50.8037 9.77705 50.9232 9.76517 51.0427 9.76517C51.2458 9.75328 51.449 9.81272 51.6163 9.93162C51.7477 10.0624 51.8075 10.2408 51.7956 10.4191L51.7836 11.5248Z" fill="white"/>
<path d="M54.1498 10.8471H53.7794C53.7316 10.8471 53.6838 10.8471 53.636 10.8471C53.5882 10.8471 53.5404 10.8709 53.4926 10.8828C53.4448 10.9066 53.4089 10.9304 53.385 10.9779C53.3492 11.0255 53.3372 11.0849 53.3372 11.1444C53.3252 11.2276 53.3731 11.3108 53.4448 11.3584C53.5404 11.4059 53.636 11.4297 53.7316 11.4178H53.8033C53.8272 11.4178 53.875 11.4178 53.8989 11.4059L54.0064 11.3822C54.0423 11.3703 54.0781 11.3703 54.114 11.3584L54.1498 10.8471ZM54.6039 11.5248C54.6039 11.5724 54.58 11.62 54.5322 11.6437C54.4725 11.6675 54.4127 11.6913 54.353 11.7032C54.2932 11.727 54.2215 11.7389 54.1498 11.7389C54.0781 11.7389 54.0184 11.7507 53.9467 11.7626H53.7674C53.624 11.7626 53.4926 11.7507 53.3492 11.7151C53.2535 11.6913 53.1699 11.6437 53.0862 11.5843C53.0265 11.5367 52.9787 11.4654 52.9548 11.3941C52.9309 11.3227 52.9189 11.2395 52.9189 11.1563C52.9189 11.073 52.9309 10.9898 52.9667 10.9066C52.9906 10.8233 53.0384 10.752 53.1101 10.7045C53.1818 10.645 53.2775 10.5856 53.3611 10.5618C53.4806 10.5261 53.6121 10.5023 53.7435 10.5023H54.1618V10.4429C54.1618 10.3953 54.1618 10.3596 54.1498 10.3121C54.1379 10.2764 54.114 10.2408 54.0901 10.2051C54.0542 10.1694 54.0184 10.1575 53.9706 10.1456C53.9108 10.1219 53.8391 10.1219 53.7794 10.1219C53.6838 10.1219 53.5882 10.1337 53.5045 10.1456C53.4209 10.1575 53.3372 10.1694 53.2536 10.1932C53.2297 10.1932 53.2177 10.1932 53.1938 10.1932C53.1818 10.1932 53.1699 10.1694 53.1699 10.1456L53.1221 9.94351C53.1101 9.90784 53.1221 9.88406 53.1579 9.87217C53.2655 9.8365 53.385 9.80083 53.5045 9.78894C53.624 9.77705 53.7435 9.76517 53.863 9.76517C54.0662 9.75328 54.2693 9.81272 54.4366 9.93162C54.5681 10.0624 54.6278 10.2408 54.6159 10.4191V11.5248H54.6039Z" fill="white"/>
<path d="M57.6872 10.1335C57.6274 10.1335 57.5557 10.1454 57.5079 10.1692C57.4601 10.1929 57.4123 10.2286 57.3765 10.2762C57.3406 10.3237 57.3047 10.3713 57.2808 10.4307C57.2569 10.4902 57.245 10.5496 57.245 10.6091H58.1174C58.1174 10.5496 58.1174 10.4902 58.0935 10.4307C58.0815 10.3832 58.0576 10.3237 58.0218 10.288C57.9859 10.2405 57.9501 10.2167 57.8903 10.1929C57.8306 10.1454 57.7589 10.1335 57.6872 10.1335ZM57.6872 9.78868C57.9262 9.7649 58.1532 9.84813 58.3325 10.0027C58.4759 10.1573 58.5596 10.3713 58.5357 10.5853C58.5357 10.6328 58.5237 10.6923 58.5118 10.7399C58.4998 10.7755 58.4759 10.8112 58.452 10.835C58.4281 10.8588 58.3922 10.8706 58.3564 10.8825C58.3205 10.8944 58.2727 10.8944 58.2369 10.8944H57.233C57.233 10.9776 57.245 11.0609 57.2808 11.1322C57.3047 11.1917 57.3406 11.2392 57.3884 11.2868C57.4362 11.3224 57.496 11.3581 57.5557 11.37C57.6274 11.3819 57.6872 11.3938 57.7589 11.3938C57.9142 11.3938 58.0576 11.3581 58.201 11.2987C58.2369 11.2868 58.2727 11.2868 58.2847 11.3224L58.3922 11.5246C58.4042 11.5484 58.4042 11.584 58.3803 11.6078H58.3683C58.2727 11.6672 58.1652 11.7029 58.0576 11.7267C57.9501 11.7505 57.8425 11.7624 57.735 11.7624C57.484 11.7861 57.233 11.691 57.0418 11.5246C56.8626 11.3224 56.7789 11.049 56.8028 10.7755C56.8028 10.6328 56.8267 10.4902 56.8745 10.3475C56.9104 10.2286 56.9821 10.1216 57.0538 10.0265C57.1374 9.94325 57.233 9.87191 57.3406 9.83624C57.4362 9.81246 57.5557 9.78868 57.6872 9.78868Z" fill="white"/>
<path d="M61.7745 10.847H61.404C61.3562 10.847 61.3204 10.847 61.2726 10.847C61.2248 10.847 61.177 10.8588 61.1292 10.8826C61.0814 10.9064 61.0455 10.9302 61.0216 10.9777C60.9858 11.0253 60.9738 11.0847 60.9738 11.1442C60.9619 11.2274 61.0097 11.3106 61.0814 11.3582C61.177 11.4058 61.2726 11.4295 61.3682 11.4177H61.4399C61.4757 11.4177 61.4996 11.4177 61.5355 11.4058L61.643 11.382C61.6789 11.3701 61.7147 11.3701 61.7506 11.3582L61.7745 10.847ZM62.2166 11.5247C62.2166 11.5722 62.1927 11.6198 62.1449 11.6436C62.0852 11.6673 62.0254 11.6911 61.9657 11.703C61.9059 11.7149 61.8342 11.7387 61.7625 11.7387C61.6908 11.7387 61.6311 11.7506 61.5594 11.7625H61.3682C61.2248 11.7625 61.0933 11.7506 60.9499 11.7149C60.8543 11.6911 60.7707 11.6436 60.687 11.5841C60.6273 11.5365 60.5795 11.4652 60.5556 11.3939C60.4958 11.2393 60.4958 11.0729 60.5556 10.9183C60.5795 10.8351 60.6273 10.7637 60.699 10.7162C60.7707 10.6448 60.8543 10.5973 60.9499 10.5735C61.0694 10.5378 61.2009 10.514 61.3323 10.514H61.7506V10.4546C61.7506 10.407 61.7506 10.3714 61.7386 10.3238C61.7267 10.2881 61.7028 10.2525 61.6789 10.2168C61.643 10.1811 61.6072 10.1692 61.5594 10.1574C61.4996 10.1336 61.4279 10.1336 61.3682 10.1336C61.2726 10.1336 61.177 10.1455 61.0814 10.1574C60.9977 10.1692 60.9141 10.1811 60.8304 10.2049C60.8065 10.2049 60.7946 10.2049 60.7707 10.2049C60.7587 10.193 60.7468 10.1811 60.7468 10.1574L60.687 9.95523C60.6751 9.91956 60.687 9.89578 60.7229 9.88389C60.8304 9.84822 60.9499 9.81255 61.0694 9.80066C61.1889 9.78877 61.3084 9.77688 61.4279 9.77688C61.6311 9.76499 61.8462 9.82444 62.0015 9.94334C62.133 10.0741 62.1927 10.2525 62.1808 10.4308L62.2166 11.5247Z" fill="white"/>
<path d="M50.1707 9.21812C50.1587 9.20623 50.1348 9.19434 50.099 9.19434H49.0354C48.9279 9.19434 48.8203 9.20623 48.7128 9.25378C48.6291 9.28945 48.5694 9.33701 48.5096 9.39646C48.4499 9.45591 48.414 9.52725 48.4021 9.61047C48.3782 9.6937 48.3662 9.76504 48.3662 9.84827V11.6555C48.3662 11.6912 48.3662 11.7031 48.3901 11.7149C48.414 11.7268 48.4379 11.7268 48.4618 11.7268H48.5694C48.7128 11.7268 48.8203 11.6198 48.8203 11.4772C48.8203 11.4653 48.8203 11.4534 48.8203 11.4534V10.6211H49.9556C49.9914 10.6211 50.0153 10.6211 50.0153 10.5973C50.0273 10.5735 50.0273 10.5616 50.0273 10.5379V10.3357C50.0273 10.312 50.0273 10.2882 50.0153 10.2644C50.0153 10.2525 49.9914 10.2406 49.9556 10.2406H48.8203V9.82449C48.8084 9.75315 48.8323 9.6937 48.8801 9.64614C48.9398 9.59859 49.0115 9.57481 49.0832 9.5867H50.099C50.1348 9.5867 50.1587 9.5867 50.1587 9.56292C50.1707 9.53914 50.1826 9.51536 50.1826 9.49158V9.26567C50.1826 9.25379 50.1826 9.23001 50.1707 9.21812Z" fill="white"/>
<path d="M56.1342 11.0725C56.1103 11.1438 56.0744 11.2152 56.0266 11.2627C55.9788 11.3103 55.919 11.346 55.8593 11.3697C55.7876 11.3935 55.7159 11.4054 55.6442 11.4054C55.5844 11.4054 55.5247 11.4054 55.4649 11.4054C55.4052 11.4054 55.3454 11.3816 55.2857 11.3697V10.2164C55.3574 10.1927 55.441 10.1808 55.5127 10.1689C55.5725 10.157 55.6322 10.157 55.68 10.157C55.8234 10.1451 55.9549 10.2045 56.0505 10.3115C56.1461 10.4542 56.1939 10.6207 56.182 10.7871C56.182 10.8823 56.17 10.9893 56.1342 11.0725ZM56.5763 10.3829C56.5405 10.2759 56.4927 10.1689 56.421 10.0738C56.3493 9.99053 56.2537 9.91919 56.1581 9.87163C56.0386 9.82407 55.9071 9.7884 55.7637 9.80029C55.68 9.80029 55.6083 9.81218 55.5366 9.81218C55.453 9.82407 55.3693 9.83596 55.2976 9.85974V9.15825C55.2976 9.13447 55.2976 9.11069 55.2857 9.0988C55.2737 9.08691 55.2498 9.08691 55.2259 9.08691H55.1064C54.963 9.08691 54.8555 9.20581 54.8555 9.3366C54.8555 9.34849 54.8555 9.34849 54.8555 9.36038V11.56C54.8555 11.5837 54.8555 11.5956 54.8674 11.6075C54.8794 11.6194 54.8913 11.6313 54.9152 11.6432C55.0347 11.6908 55.1542 11.7264 55.2857 11.7502C55.4171 11.774 55.5486 11.7859 55.68 11.7859C55.8234 11.7859 55.9788 11.7621 56.1103 11.7145C56.2298 11.667 56.3254 11.5956 56.409 11.5005C56.4927 11.4054 56.5524 11.2984 56.5763 11.1795C56.6122 11.0487 56.6361 10.9179 56.6241 10.7752C56.6241 10.6445 56.6122 10.5137 56.5763 10.3829Z" fill="white"/>
<path d="M59.5046 11.6432L59.4806 11.4411C59.4806 11.4173 59.4806 11.4054 59.4567 11.4054C59.4448 11.4054 59.4328 11.4054 59.4089 11.4054H59.3371C59.3131 11.4054 59.2892 11.4054 59.2653 11.4054C59.2294 11.4054 59.1935 11.3935 59.1576 11.3697C59.1337 11.3341 59.1337 11.2865 59.1337 11.2389V9.14636C59.1337 9.12258 59.1337 9.0988 59.1097 9.0988C59.0978 9.08691 59.0739 9.08691 59.0499 9.08691H58.9303C58.7867 9.08691 58.679 9.20581 58.679 9.34849V11.3578C58.6671 11.4767 58.703 11.5956 58.7747 11.6908C58.8585 11.7621 58.9781 11.7978 59.0858 11.7859C59.1337 11.7859 59.1935 11.7859 59.2533 11.774C59.3131 11.774 59.373 11.7502 59.4208 11.7383C59.4328 11.7264 59.4567 11.7145 59.4687 11.7026C59.5046 11.6789 59.5046 11.667 59.5046 11.6432Z" fill="white"/>
<path d="M60.4723 11.6432L60.4484 11.4411C60.4484 11.4292 60.4365 11.4173 60.4245 11.4054C60.4125 11.4054 60.4006 11.4054 60.3766 11.4054H60.3048C60.2809 11.4054 60.257 11.4054 60.2331 11.4054C60.1972 11.4054 60.1613 11.3935 60.1254 11.3697C60.1015 11.3341 60.1014 11.2865 60.1014 11.239V9.14636C60.1014 9.12258 60.1015 9.11069 60.0775 9.0988C60.0656 9.08691 60.0416 9.08691 60.0177 9.08691H59.8981C59.7545 9.08691 59.6468 9.20581 59.6468 9.34849V9.36038V11.346C59.6348 11.4649 59.6707 11.5838 59.7425 11.6789C59.8263 11.7502 59.9339 11.7859 60.0536 11.774C60.1014 11.774 60.1613 11.774 60.2331 11.7621C60.2929 11.7621 60.3527 11.7383 60.4006 11.7264C60.4125 11.7264 60.4365 11.7145 60.4484 11.6908C60.4723 11.6908 60.4723 11.667 60.4723 11.6432Z" fill="white"/>
<path d="M52.8603 11.6432L52.8364 11.4411C52.8364 11.4173 52.8364 11.4054 52.8244 11.4054C52.8124 11.4054 52.8005 11.4054 52.7765 11.4054H52.7167C52.6928 11.4054 52.6689 11.4054 52.6449 11.4054C52.609 11.4054 52.5731 11.3935 52.5372 11.3697C52.5133 11.3341 52.5013 11.2865 52.5133 11.2389V9.14636C52.5133 9.12258 52.5133 9.0988 52.5013 9.0988C52.4894 9.08691 52.4655 9.08691 52.4415 9.08691H52.3219C52.1783 9.08691 52.0706 9.20581 52.0706 9.3366C52.0706 9.34849 52.0706 9.34849 52.0706 9.36038V11.3341C52.0587 11.453 52.0946 11.5719 52.1663 11.667C52.2501 11.7383 52.3697 11.774 52.4774 11.7621C52.5253 11.7621 52.5851 11.7621 52.6449 11.7502C52.7047 11.7502 52.7646 11.7264 52.8124 11.7145C52.8244 11.7026 52.8483 11.7026 52.8603 11.6789C52.8603 11.6789 52.8603 11.6551 52.8603 11.6432Z" fill="white"/>
<path fill-rule="evenodd" clip-rule="evenodd" d="M10.5028 11.3647H11.4965C11.6782 11.3647 11.7102 11.3319 11.7102 11.1786V6.12021C11.7102 5.96693 11.6782 5.93408 11.4965 5.93408H10.5028C10.3639 5.93408 10.2998 5.96693 10.2998 6.12021V11.1896C10.2998 11.3319 10.3532 11.3647 10.5028 11.3647ZM15.9201 10.029C15.8666 9.87569 15.8346 9.87569 15.6636 9.94138C15.311 10.0837 14.9264 10.1604 14.5417 10.1932C13.6869 10.1932 13.4518 9.60197 13.4518 8.76985C13.4518 7.97058 13.751 7.29175 14.5203 7.29175C14.8516 7.29175 15.1828 7.35744 15.4927 7.46693C15.6743 7.52167 15.7277 7.53262 15.7918 7.37934L16.0696 6.60197C16.1444 6.43773 16.1338 6.39394 15.9628 6.31729C15.4713 6.08737 14.9477 5.96693 14.4135 5.97788C12.9176 5.97788 11.9773 7.03992 11.9773 8.7589C11.9773 10.5764 12.7894 11.4852 14.328 11.4852C14.8623 11.4852 15.5568 11.3866 16.1338 11.0691C16.2727 10.9815 16.262 10.9158 16.1979 10.7844L15.9201 10.029Z" fill="white"/>
<path fill-rule="evenodd" clip-rule="evenodd" d="M10.4498 4.34639C10.4498 4.76245 10.6314 5.00332 10.9947 5.00332C11.3794 5.00332 11.5503 4.7515 11.5397 4.34639C11.5397 3.94128 11.358 3.68945 10.9947 3.68945C10.6528 3.68945 10.4498 3.93033 10.4498 4.34639ZM8.90048 6.14201C8.56925 6.02157 8.22734 5.96683 7.88542 5.97777C7.4046 5.96683 6.94515 6.21865 6.68871 6.63471V6.14201C6.66734 6.01062 6.54981 5.92303 6.42159 5.92303H5.52406C5.37447 5.92303 5.25694 6.04347 5.25694 6.19675V8.95588C5.25694 9.40478 5.05392 10.0617 4.34872 10.0617C3.35503 10.0617 3.42982 8.82449 3.42982 8.82449V6.16391C3.41914 6.03252 3.3016 5.93398 3.17338 5.93398H2.25448C2.12627 5.92303 2.00873 6.02157 1.99805 6.16391V6.21865V8.7588C1.99805 10.0508 2.23311 10.861 3.04517 11.1785C3.36571 11.2989 3.71831 11.3537 4.06023 11.3427C4.54105 11.3537 5.0005 11.1019 5.25694 10.6858V11.1457C5.27831 11.277 5.39584 11.3646 5.52406 11.3646H6.42159C6.57118 11.3646 6.68871 11.2442 6.68871 11.0909V8.34274C6.68871 7.89383 6.89173 7.2369 7.59693 7.2369C8.59062 7.2369 8.51583 8.47412 8.51583 8.47412V11.1785C8.51583 11.288 8.54788 11.3318 8.62268 11.3537C8.6387 11.3537 8.65473 11.3564 8.67076 11.3592C8.68679 11.3619 8.70281 11.3646 8.71884 11.3646H9.7339C9.91555 11.3646 9.93692 11.3318 9.93692 11.1895V8.56172C9.9476 7.26975 9.72322 6.47047 8.90048 6.14201ZM18.4314 11.4741C19.0832 11.4741 19.9059 11.3975 20.5043 11.1019C20.6539 11.0362 20.7393 10.8719 20.718 10.6858V7.78434C20.718 6.56902 20.0769 5.93398 18.6558 5.93398C18.0147 5.93398 17.3736 6.03252 16.7646 6.24055C16.6577 6.28434 16.6257 6.31719 16.6684 6.47047L16.818 7.18215C16.85 7.31354 16.8928 7.35734 17.0637 7.31354C17.5125 7.1931 17.972 7.13836 18.4421 7.12741C19.1793 7.12741 19.2969 7.46683 19.2969 7.83909V8.00332H18.2177C16.818 8.00332 16.1555 8.76974 16.1555 9.79894C16.1555 10.7296 16.6684 11.4741 18.4314 11.4741ZM17.6194 9.68945C17.6194 9.04347 18.1429 8.97777 18.5062 8.97777H19.2862V10.1931C19.0191 10.2807 18.752 10.3245 18.4741 10.3245C17.9506 10.3245 17.6194 10.1603 17.6194 9.68945ZM11.0054 3.94128C10.8238 3.94128 10.7383 4.12741 10.7383 4.33544C10.7383 4.58726 10.8024 4.7515 11.0054 4.7515C11.2084 4.7515 11.2725 4.55442 11.2725 4.34639C11.2725 4.13836 11.2191 3.94128 11.0054 3.94128ZM11.764 5.35369H11.9457C11.9717 5.35369 11.9819 5.35369 11.9859 5.34873C11.9884 5.34555 11.9884 5.34034 11.9884 5.33179V4.98142C12.0525 4.99237 12.1273 5.00332 12.1914 5.00332C12.4799 5.00332 12.6081 4.78434 12.6081 4.51062C12.6081 4.2369 12.4906 4.01792 12.1594 4.01792C12.0205 4.01792 11.8923 4.03982 11.764 4.09456C11.7427 4.10551 11.732 4.12741 11.732 4.14931V5.32084C11.732 5.35369 11.7427 5.35369 11.764 5.35369ZM12.1166 4.24785C12.0739 4.24785 12.0205 4.2588 11.9777 4.26974V4.76245L12.0005 4.7672C12.0439 4.77636 12.0817 4.78434 12.1273 4.78434C12.2449 4.78434 12.3303 4.7077 12.3303 4.51062C12.3303 4.31354 12.2555 4.24785 12.1166 4.24785ZM12.7257 4.51062C12.7257 4.81719 12.8539 5.00332 13.1638 5.00332C13.4736 5.00332 13.6125 4.81719 13.6125 4.49967C13.6125 4.1931 13.4629 4.00697 13.1638 4.00697C12.8966 4.00697 12.7257 4.1931 12.7257 4.51062ZM13.1744 4.2369C13.0462 4.2369 12.9928 4.34639 12.9928 4.51062C12.9928 4.67485 13.0462 4.78434 13.1744 4.78434C13.3027 4.78434 13.3561 4.66391 13.3561 4.51062C13.3561 4.35734 13.3027 4.2369 13.1744 4.2369ZM13.8262 4.99237H14.0079C14.0399 4.99237 14.0506 4.98142 14.0399 4.97047V4.2588H14.1147C14.2002 4.2588 14.2857 4.29164 14.3498 4.34639C14.3818 4.36829 14.3925 4.36829 14.4032 4.34639L14.4994 4.1931C14.4994 4.19064 14.4999 4.18763 14.5005 4.18431C14.5026 4.17286 14.5052 4.1578 14.4887 4.14931C14.3711 4.06172 14.2109 4.01792 14.0613 4.01792C14.0079 4.01792 13.9651 4.01792 13.9224 4.02887C13.8155 4.03982 13.7942 4.08361 13.7942 4.18215V4.95953C13.7942 4.98142 13.8048 4.99237 13.8262 4.99237Z" fill="white"/>
<path fill-rule="evenodd" clip-rule="evenodd" d="M17.3631 3.78806C17.3524 3.87565 17.4166 3.94135 17.5023 3.94135C17.5773 3.94135 17.6523 3.8647 17.6523 3.79901C17.663 3.71142 17.5987 3.64573 17.513 3.64573C17.4273 3.63478 17.3738 3.70047 17.3631 3.78806ZM14.9056 5.01434C14.991 5.01434 15.0765 5.00339 15.1513 4.98149C15.1834 4.97054 15.1727 4.95959 15.162 4.94864L15.1406 4.79536C15.1406 4.77346 15.1299 4.77346 15.1086 4.77346C15.0658 4.78441 15.0231 4.78441 14.9803 4.78441C14.9056 4.78441 14.8735 4.76251 14.8735 4.69682V4.23697H15.0658C15.0979 4.23697 15.0979 4.22602 15.0979 4.20412V4.07273C15.0979 4.05083 15.0872 4.03989 15.0658 4.03989H14.8735V3.79901C14.8735 3.76616 14.8628 3.76616 14.8414 3.76616L14.6812 3.82091C14.6491 3.82091 14.6384 3.83186 14.6384 3.8647L14.6277 4.03989L14.4995 4.07273C14.4675 4.07273 14.4675 4.08368 14.4675 4.10558V4.20412C14.4675 4.22602 14.4782 4.23697 14.4995 4.23697H14.6277V4.75156C14.6277 4.92675 14.7025 5.01434 14.9056 5.01434ZM15.8458 4.07273V4.78441C15.8031 4.79536 15.771 4.79536 15.7283 4.79536C15.568 4.79536 15.536 4.71872 15.536 4.55448V4.07273C15.536 4.05083 15.5253 4.03989 15.5039 4.03989H15.3223C15.2795 4.03989 15.2795 4.05083 15.2795 4.07273V4.54354C15.2795 4.88295 15.4077 5.01434 15.7497 5.01434C15.8351 5.01434 15.9206 5.00339 16.0061 4.99244C16.0809 4.98149 16.1236 4.90485 16.1129 4.83916V4.07273C16.1129 4.05083 16.0916 4.03989 16.0702 4.03989H15.8886C15.8458 4.03989 15.8458 4.05083 15.8458 4.07273ZM16.551 4.23697V4.94864C16.551 4.97054 16.551 4.98149 16.519 4.98149H16.3373C16.3053 4.98149 16.3053 4.97054 16.3053 4.94864V4.17127C16.3053 4.09463 16.3266 4.03989 16.4228 4.02894C16.5083 4.01799 16.5938 4.00704 16.6686 4.00704C16.9998 4.00704 17.1494 4.13843 17.1494 4.47784V4.94864C17.1494 4.97054 17.1494 4.98149 17.1173 4.98149H16.9357C16.9143 4.98149 16.9036 4.97054 16.9036 4.94864V4.45594C16.9036 4.30266 16.8609 4.21507 16.6899 4.21507L16.6633 4.22065C16.6218 4.22945 16.5864 4.23697 16.551 4.23697ZM17.588 4.99244H17.4059C17.3738 4.99244 17.3631 4.98149 17.3631 4.95959V4.07273C17.3631 4.03989 17.3738 4.03989 17.4059 4.03989H17.588C17.6201 4.03989 17.6308 4.03989 17.6308 4.07273V4.95959L17.627 4.96781C17.6196 4.98423 17.6158 4.99244 17.588 4.99244ZM18.4209 4.02894C18.3675 4.01799 18.3033 4.00704 18.2392 4.00704C17.9401 4.00704 17.8118 4.23697 17.8225 4.51069C17.8225 4.79536 17.9294 5.00339 18.2713 5.00339C18.3675 5.00339 18.6773 4.97054 18.688 4.8939V4.81726V3.70047C18.688 3.67857 18.6666 3.66762 18.6453 3.66762H18.4636C18.4316 3.66762 18.4209 3.66762 18.4209 3.70047V4.02894ZM18.2927 4.78441C18.3354 4.78441 18.3888 4.77346 18.4316 4.76251V4.25886C18.3888 4.24792 18.3354 4.23697 18.282 4.23697C18.1644 4.23697 18.079 4.32456 18.079 4.52164C18.079 4.72967 18.1538 4.78441 18.2927 4.78441ZM19.2543 5.00339C19.3825 5.01434 19.5107 4.98149 19.6283 4.9377C19.6603 4.92675 19.671 4.8939 19.671 4.83916V4.31361C19.671 4.10558 19.5535 3.98514 19.297 3.98514C19.1795 3.98514 19.062 4.00704 18.9551 4.03989C18.9338 4.05083 18.9231 4.06178 18.9338 4.08368L18.9658 4.21507C18.9658 4.23697 18.9765 4.24791 19.0085 4.23697C19.0833 4.21507 19.1688 4.20412 19.2543 4.20412C19.3825 4.20412 19.4039 4.26981 19.4039 4.33551V4.36835H19.2116C18.9551 4.36835 18.8376 4.51069 18.8376 4.69682C18.8376 4.872 18.9338 5.00339 19.2543 5.00339ZM19.2757 4.55448C19.2116 4.55448 19.1154 4.56543 19.1154 4.68587C19.1154 4.77346 19.1795 4.80631 19.265 4.80631C19.3106 4.80631 19.3484 4.79832 19.3918 4.78917L19.4146 4.78441V4.56543L19.2757 4.55448ZM20.4403 4.02894C20.3762 4.01799 20.3121 4.00704 20.248 4.00704C19.9595 4.00704 19.8313 4.23697 19.842 4.51069C19.842 4.79536 19.9488 5.00339 20.2907 5.00339C20.3869 5.00339 20.6968 4.97054 20.7074 4.8939V4.81726V3.70047C20.7074 3.67857 20.6861 3.66762 20.6647 3.66762H20.4831C20.451 3.66762 20.4403 3.66762 20.4403 3.70047V4.02894ZM20.3121 4.78441C20.3548 4.78441 20.4083 4.77346 20.451 4.76251V4.25886C20.4083 4.24792 20.3548 4.23697 20.3014 4.23697C20.1839 4.23697 20.0984 4.32456 20.0984 4.52164C20.0984 4.72967 20.1732 4.78441 20.3121 4.78441ZM4.31683 4.98149L3.94285 4.90485C3.88943 4.8939 3.88943 4.872 3.90011 4.82821L4.18861 4.10558C4.22066 4.02894 4.25272 4.03989 4.31683 4.06178L4.85107 4.16032C4.89381 4.17127 4.90449 4.20412 4.88312 4.23697L4.41299 4.94864C4.38093 4.99244 4.35956 4.99244 4.31683 4.98149Z" fill="white"/>
</svg>
